<?xml version="1.0" standalone="no"?><!-- Generator: Gravit.io --><svg xmlns="http://www.w3.org/2000/svg" xmlns:xlink="http://www.w3.org/1999/xlink" style="isolation:isolate" viewBox="0 0 44 48" width="44" height="48"><defs><clipPath id="_clipPath_qCceuATdM6J4x1SdWc3WWKjIH6gsIpv6"><rect width="44" height="48"/></clipPath></defs><g clip-path="url(#_clipPath_qCceuATdM6J4x1SdWc3WWKjIH6gsIpv6)"><g id="Group"><g id="Group"><path d=" M 22 24 C 25.314 24 28.142 22.828 30.485 20.484 C 32.829 18.141 34.001 15.313 34.001 12 C 34.001 8.687 32.829 5.859 30.485 3.515 C 28.141 1.172 25.313 0 22 0 C 18.688 0 15.859 1.172 13.516 3.515 C 11.172 5.859 10 8.687 10 12 C 10 15.313 11.172 18.141 13.516 20.484 C 15.86 22.828 18.688 24 22 24 Z " fill="rgb(255,255,255)"/><path d=" M 43.891 36.672 C 43.818 35.62 43.672 34.484 43.454 33.266 C 43.235 32.047 42.958 30.917 42.625 29.875 C 42.292 28.833 41.844 27.818 41.281 26.828 C 40.719 25.838 40.073 24.995 39.343 24.297 C 38.614 23.599 37.723 23.042 36.672 22.625 C 35.619 22.209 34.458 22 33.187 22 C 33 22 32.562 22.224 31.874 22.672 C 31.187 23.12 30.411 23.62 29.547 24.172 C 28.682 24.724 27.557 25.224 26.172 25.671 C 24.786 26.119 23.396 26.343 21.999 26.343 C 20.604 26.343 19.213 26.119 17.828 25.671 C 16.443 25.224 15.317 24.724 14.453 24.172 C 13.588 23.62 12.812 23.12 12.125 22.672 C 11.437 22.224 11 22 10.812 22 C 9.542 22 8.38 22.209 7.328 22.625 C 6.276 23.042 5.385 23.599 4.656 24.297 C 3.927 24.995 3.281 25.838 2.719 26.828 C 2.156 27.818 1.709 28.834 1.375 29.875 C 1.042 30.917 0.766 32.047 0.547 33.266 C 0.328 34.484 0.182 35.619 0.109 36.672 C 0.036 37.725 0 38.803 0 39.907 C 0 42.406 0.761 44.381 2.281 45.829 C 3.802 47.276 5.823 48 8.344 48 L 35.657 48 C 38.178 48 40.199 47.276 41.72 45.829 C 43.241 44.381 44.001 42.407 44.001 39.907 C 44.001 38.803 43.965 37.725 43.891 36.672 Z " fill="rgb(255,255,255)"/></g></g></g></svg>
