<?xml version="1.0" standalone="no"?><!-- Generator: Gravit.io --><svg xmlns="http://www.w3.org/2000/svg" xmlns:xlink="http://www.w3.org/1999/xlink" style="isolation:isolate" viewBox="0 0 512 512" width="512" height="512"><defs><clipPath id="_clipPath_icVwpA4fNkUalGkGUv8prp668sCaz2Ml"><rect width="512" height="512"/></clipPath></defs><g clip-path="url(#_clipPath_icVwpA4fNkUalGkGUv8prp668sCaz2Ml)"><g id="Group"><g id="Group"><path d=" M 493.71 387.854 L 18.288 387.854 C 13.332 387.854 9.048 389.665 5.428 393.285 C 1.811 396.901 0.001 401.188 0.001 406.14 L 0.001 442.712 C 0.001 447.663 1.811 451.951 5.429 455.575 C 9.052 459.188 13.338 461 18.289 461 L 493.711 461 C 498.659 461 502.95 459.188 506.57 455.575 C 510.187 451.952 511.999 447.664 511.999 442.712 L 511.999 406.14 C 511.999 401.188 510.187 396.901 506.57 393.284 C 502.949 389.664 498.658 387.854 493.71 387.854 Z " fill="rgb(255,255,255)"/><path d=" M 506.569 56.428 C 502.95 52.813 498.659 51 493.71 51 L 18.288 51 C 13.332 51 9.048 52.813 5.428 56.428 C 1.811 60.047 0.001 64.336 0.001 69.287 L 0.001 105.86 C 0.001 110.812 1.811 115.096 5.429 118.716 C 9.052 122.335 13.338 124.144 18.289 124.144 L 493.711 124.144 C 498.659 124.144 502.95 122.334 506.57 118.716 C 510.187 115.097 511.999 110.813 511.999 105.86 L 511.999 69.287 C 511.997 64.336 510.186 60.05 506.569 56.428 Z " fill="rgb(255,255,255)"/><path d=" M 493.71 219.427 L 18.288 219.427 C 13.332 219.427 9.048 221.235 5.428 224.855 C 1.811 228.472 0.001 232.758 0.001 237.711 L 0.001 274.284 C 0.001 279.235 1.811 283.524 5.429 287.138 C 9.052 290.758 13.338 292.571 18.289 292.571 L 493.711 292.571 C 498.659 292.571 502.95 290.758 506.57 287.138 C 510.187 283.524 511.999 279.235 511.999 274.284 L 511.999 237.711 C 511.999 232.755 510.187 228.473 506.57 224.855 C 502.949 221.235 498.658 219.427 493.71 219.427 Z " fill="rgb(255,255,255)"/></g></g></g></svg>